# Blender v2.80 (sub 60) OBJ File: ''
# www.blender.org
mtllib wooden_plank_g.mtl
o Cube_Cube.001
v -1.000000 -3.883937 0.402879
v -1.000000 3.883937 0.402879
v -1.000000 -3.883937 -0.402879
v -1.000000 3.883937 -0.402879
v 1.000000 -3.883937 0.402879
v 1.000000 3.883937 0.402879
v 1.000000 -3.883937 -0.402879
v 1.000000 3.883937 -0.402879
v -0.037809 3.883937 0.402879
v -0.498189 3.883937 0.402879
v -0.330817 2.646847 0.402879
v -0.435859 3.883937 -0.402879
v 0.003183 3.883937 -0.402879
v -0.205657 2.750461 -0.402879
v 0.200051 -3.883937 0.402879
v 0.696184 -3.883937 0.402879
v 0.478556 -2.783943 0.402879
v 0.610258 -3.883937 -0.402879
v 0.183909 -3.883937 -0.402879
v 0.393871 -2.745236 -0.402879
vt 0.375000 0.000000
vt 0.625000 0.000000
vt 0.625000 0.250000
vt 0.375000 0.250000
vt 0.625000 0.320518
vt 0.588520 0.349293
vt 0.625000 0.375398
vt 0.625000 0.500000
vt 0.375000 0.500000
vt 0.375000 0.451282
vt 0.411648 0.424234
vt 0.375000 0.397989
vt 0.625000 0.750000
vt 0.375000 0.750000
vt 0.625000 0.879726
vt 0.585186 0.916352
vt 0.625000 0.937274
vt 0.625000 1.000000
vt 0.375000 1.000000
vt 0.375000 0.849994
vt 0.410402 0.815180
vt 0.375000 0.787977
vt 0.326282 0.500000
vt 0.337023 0.750000
vt 0.804482 0.500000
vt 0.875000 0.500000
vt 0.875000 0.750000
vt 0.812274 0.750000
vt 0.749602 0.500000
vt 0.754726 0.750000
vt 0.125000 0.500000
vt 0.272989 0.500000
vt 0.275006 0.750000
vt 0.125000 0.750000
vn -1.0000 0.0000 0.0000
vn 0.0000 0.0000 -1.0000
vn 1.0000 0.0000 0.0000
vn 0.0000 0.0000 1.0000
vn 0.0000 -1.0000 -0.0000
vn 0.0000 1.0000 0.0000
vn 0.9786 0.1641 0.1244
vn -0.9746 0.2063 -0.0872
vn 0.9749 -0.2127 -0.0661
vn -0.9769 -0.1894 0.0989
usemtl None
s off
f 1/1/1 2/2/1 4/3/1 3/4/1
f 3/4/2 4/3/2 12/5/2 14/6/2 13/7/2 8/8/2 7/9/2 18/10/2 20/11/2 19/12/2
f 7/9/3 8/8/3 6/13/3 5/14/3
f 5/14/4 6/13/4 9/15/4 11/16/4 10/17/4 2/18/4 1/19/4 15/20/4 17/21/4 16/22/4
f 18/23/5 7/9/5 5/14/5 16/24/5
f 12/25/6 4/26/6 2/27/6 10/28/6
f 8/8/6 13/29/6 9/30/6 6/13/6
f 10/28/7 11/16/7 14/6/7 12/25/7
f 11/16/8 9/30/8 13/7/8 14/6/8
f 3/31/5 19/32/5 15/33/5 1/34/5
f 15/33/9 19/32/9 20/11/9 17/21/9
f 17/21/10 20/11/10 18/10/10 16/24/10
